<svg width="273" height="308" viewBox="0 0 273 308" fill="none" xmlns="http://www.w3.org/2000/svg">
<path d="M105.365 290.706C39.5226 262.077 23.0732 202.766 51.7022 136.924C80.3312 71.082 177.523 33.5774 243.365 62.2064" stroke="#EFB810" stroke-width="6"/>
<path fill-rule="evenodd" clip-rule="evenodd" d="M194.269 79.5334C188.28 81.6034 181.788 86.4764 178.998 90.9944C177.391 93.5964 162.865 129.018 162.865 130.335C162.865 131.364 173.742 130.549 174.585 129.456C175.116 128.769 178.344 121.18 181.76 112.593C190.742 90.0104 192.54 88.7064 214.685 88.7064C227.431 88.7064 228.842 88.5214 231.898 86.4564C233.728 85.2194 235.821 82.7434 236.548 80.9564L237.871 77.7064L218.618 77.7394C202.889 77.7654 198.432 78.0944 194.269 79.5334ZM64.1788 140.656C60.8498 142.686 58.8648 145.482 58.8648 148.14C58.8648 149.484 60.7748 149.706 72.3138 149.706C124.083 149.706 171.404 169.677 177.252 193.993C178.297 198.34 176.106 204.49 171.876 209.078C169.751 211.384 163.367 216.057 157.689 219.463C152.011 222.87 145.129 227.444 142.396 229.629C139.663 231.814 137.33 233.504 137.212 233.386C137.093 233.267 141.242 221.512 146.431 207.263C151.62 193.014 155.865 180.805 155.865 180.133C155.865 179.46 153.952 177.777 151.615 176.394C148.168 174.354 147.217 174.141 146.58 175.266C145.813 176.621 142.756 184.918 126.884 228.706C107.653 281.765 103.749 292.923 104.244 293.418C104.534 293.708 106.35 293.65 108.279 293.288C112.99 292.404 116.962 288.189 119.269 281.624C127.186 259.1 140.192 243.459 162.509 229.623C169.03 225.579 176.268 220.52 178.595 218.38C188.114 209.623 190.908 196.033 185.582 184.399C182.523 177.718 175.65 170.087 167.355 164.165C161.467 159.96 144.045 150.932 140.938 150.475C140.073 150.347 167.12 150.01 201.042 149.725C261.773 149.214 262.763 149.174 265.542 147.101C267.095 145.944 269.194 143.581 270.207 141.851L272.049 138.706L169.707 138.71C70.1338 138.713 67.2788 138.766 64.1788 140.656Z" fill="#EFB810"/>
</svg>
